<svg width="9" height="10" viewBox="0 0 9 10" fill="none" xmlns="http://www.w3.org/2000/svg">
<g clip-path="url(#clip0_11139_6475)">
<path d="M6.75 1.54883C6.75 0.927509 7.25368 0.423828 7.875 0.423828C8.49632 0.423828 9 0.927509 9 1.54883V8.29883C9 8.92015 8.49632 9.42383 7.875 9.42383C7.25368 9.42383 6.75 8.92015 6.75 8.29883V1.54883Z" fill="#E5E5E8"/>
<path d="M0 6.04883C0 5.42751 0.503681 4.92383 1.125 4.92383C1.74632 4.92383 2.25 5.42751 2.25 6.04883V8.29883C2.25 8.92014 1.74632 9.42383 1.125 9.42383C0.503681 9.42383 0 8.92014 0 8.29883V6.04883Z" fill="#E5E5E8"/>
<path fill-rule="evenodd" clip-rule="evenodd" d="M1.575 8.29883V6.04883C1.575 5.80029 1.37353 5.59883 1.125 5.59883C0.876474 5.59883 0.675 5.80029 0.675 6.04883V8.29883C0.675 8.54736 0.876474 8.74883 1.125 8.74883C1.37353 8.74883 1.575 8.54736 1.575 8.29883ZM1.125 4.92383C0.50368 4.92383 0 5.42751 0 6.04883V8.29883C0 8.92014 0.50368 9.42383 1.125 9.42383C1.74632 9.42383 2.25 8.92014 2.25 8.29883V6.04883C2.25 5.42751 1.74632 4.92383 1.125 4.92383Z" fill="#E5E5E8"/>
<path d="M3.375 3.79883C3.375 3.17751 3.87868 2.67383 4.5 2.67383C5.12132 2.67383 5.625 3.17751 5.625 3.79883V8.29883C5.625 8.92015 5.12132 9.42383 4.5 9.42383C3.87868 9.42383 3.375 8.92015 3.375 8.29883V3.79883Z" fill="#E5E5E8"/>
</g>
<defs>
<clipPath id="clip0_11139_6475">
<rect width="9" height="9.45" fill="white" transform="translate(0 0.275391)"/>
</clipPath>
</defs>
</svg>
