<svg width="9" height="10" viewBox="0 0 9 10" fill="none" xmlns="http://www.w3.org/2000/svg">
<path fill-rule="evenodd" clip-rule="evenodd" d="M1.575 8.29883V6.04883C1.575 5.80029 1.37353 5.59883 1.125 5.59883C0.876474 5.59883 0.675 5.80029 0.675 6.04883V8.29883C0.675 8.54736 0.876474 8.74883 1.125 8.74883C1.37353 8.74883 1.575 8.54736 1.575 8.29883ZM1.125 4.92383C0.50368 4.92383 0 5.42751 0 6.04883V8.29883C0 8.92014 0.50368 9.42383 1.125 9.42383C1.74632 9.42383 2.25 8.92014 2.25 8.29883V6.04883C2.25 5.42751 1.74632 4.92383 1.125 4.92383Z" fill="#E5E5E8"/>
<path opacity="0.5" d="M3.25 3.79883C3.25 3.17751 3.75368 2.67383 4.375 2.67383C4.99632 2.67383 5.5 3.17751 5.5 3.79883V8.29883C5.5 8.92015 4.99632 9.42383 4.375 9.42383C3.75368 9.42383 3.25 8.92015 3.25 8.29883V3.79883Z" fill="#E5E5E8"/>
<path opacity="0.5" d="M6.5 1.54883C6.5 0.927509 7.00368 0.423828 7.625 0.423828C8.24632 0.423828 8.75 0.927509 8.75 1.54883V8.29883C8.75 8.92015 8.24632 9.42383 7.625 9.42383C7.00368 9.42383 6.5 8.92015 6.5 8.29883V1.54883Z" fill="#E5E5E8"/>
</svg>
