<svg width="20" height="20" viewBox="0 0 20 20" fill="none" xmlns="http://www.w3.org/2000/svg">
<path d="M15.7143 20H4.28571C1.92286 20 0 18.0771 0 15.7143V4.28571C0 1.92286 1.92286 0 4.28571 0H11.4286C11.8075 0 12.1708 0.15051 12.4387 0.418419C12.7066 0.686328 12.8571 1.04969 12.8571 1.42857C12.8571 1.80745 12.7066 2.17081 12.4387 2.43872C12.1708 2.70663 11.8075 2.85714 11.4286 2.85714H4.28571C3.49714 2.85714 2.85714 3.49857 2.85714 4.28571V15.7143C2.85714 16.5014 3.49714 17.1429 4.28571 17.1429H15.7143C16.5029 17.1429 17.1429 16.5014 17.1429 15.7143V11.4286C17.1429 11.0497 17.2934 10.6863 17.5613 10.4184C17.8292 10.1505 18.1925 10 18.5714 10C18.9503 10 19.3137 10.1505 19.5816 10.4184C19.8495 10.6863 20 11.0497 20 11.4286V15.7143C20 18.0771 18.0771 20 15.7143 20ZM11.6657 14.0471C11.1657 14.0471 10.6814 13.8486 10.3214 13.4886L6.51 9.67857C6.16717 9.31822 5.9788 8.83811 5.98513 8.34077C5.99146 7.84343 6.19197 7.36827 6.54386 7.01675C6.89575 6.66524 7.37112 6.46522 7.86847 6.45943C8.36582 6.45363 8.84573 6.6425 9.20572 6.98571L11.2286 9.01L16.1929 1.21714C16.3102 0.991023 16.4717 0.790721 16.6677 0.628078C16.8638 0.465436 17.0905 0.343755 17.3344 0.270229C17.5783 0.196703 17.8345 0.172824 18.0878 0.200004C18.341 0.227184 18.5863 0.304872 18.8091 0.428474C19.0318 0.552077 19.2275 0.719085 19.3846 0.919625C19.5417 1.12016 19.657 1.35017 19.7237 1.59603C19.7904 1.8419 19.8071 2.09863 19.7728 2.35107C19.7386 2.6035 19.6541 2.84651 19.5243 3.06571L13.3329 13.0657C13.1899 13.3234 12.989 13.5444 12.7461 13.7113C12.5031 13.8781 12.2247 13.9863 11.9329 14.0271L11.6657 14.0471Z" fill="#FF7300"/>
</svg>
