<svg width="16" height="17" viewBox="0 0 16 17" fill="none" xmlns="http://www.w3.org/2000/svg">
<rect y="0.5" width="16" height="16" rx="2" fill="#FF7300"/>
<g clip-path="url(#clip0_2336_1998)">
<path d="M3.98828 11.6716C3.71212 11.6716 3.48828 11.8622 3.48828 12.0972V13.0744C3.48828 13.3094 3.71212 13.5 3.98828 13.5C4.2644 13.5 4.48828 13.3094 4.48828 13.0744V12.0972C4.48828 11.8622 4.26436 11.6716 3.98828 11.6716Z" fill="white"/>
<path d="M6.03125 9.62878C5.75513 9.62878 5.53125 9.81939 5.53125 10.0544V13.0745C5.53125 13.3095 5.75513 13.5001 6.03125 13.5001C6.30737 13.5001 6.53125 13.3095 6.53125 13.0745V10.0544C6.53125 9.81939 6.30733 9.62878 6.03125 9.62878Z" fill="white"/>
<path d="M8.07422 7.58582C7.7981 7.58582 7.57422 7.77638 7.57422 8.01142V13.0744C7.57422 13.3095 7.7981 13.5 8.07422 13.5C8.3503 13.5 8.57422 13.3095 8.57422 13.0744V8.01142C8.57422 7.77638 8.3503 7.58582 8.07422 7.58582Z" fill="white"/>
<path d="M10.1172 5.54297C9.84107 5.54297 9.61719 5.73354 9.61719 5.96857V13.0745C9.61719 13.3095 9.84107 13.5001 10.1172 13.5001C10.3933 13.5001 10.6172 13.3095 10.6172 13.0745V5.96857C10.6172 5.73354 10.3933 5.54297 10.1172 5.54297Z" fill="white"/>
<path opacity="0.6" d="M12.1602 3.5C11.884 3.5 11.6602 3.69057 11.6602 3.92561V13.0744C11.6602 13.3095 11.884 13.5 12.1602 13.5C12.4363 13.5 12.6602 13.3095 12.6602 13.0744V3.92561C12.6602 3.69057 12.4363 3.5 12.1602 3.5Z" fill="white"/>
</g>
<defs>
<clipPath id="clip0_2336_1998">
<rect width="10" height="10" fill="white" transform="translate(3 3.5)"/>
</clipPath>
</defs>
</svg>
