<svg width="16" height="17" viewBox="0 0 16 17" fill="none" xmlns="http://www.w3.org/2000/svg">
<rect y="0.5" width="16" height="16" rx="2" fill="#0C3373"/>
<path d="M4.5 12.5V11.5H11.5V12.5H4.5ZM4.5 10.75L3.8625 6.7375C3.84583 6.7375 3.827 6.73967 3.806 6.744C3.785 6.74833 3.76633 6.75033 3.75 6.75C3.54167 6.75 3.36467 6.677 3.219 6.531C3.07333 6.385 3.00033 6.208 3 6C2.99967 5.792 3.07267 5.615 3.219 5.469C3.36533 5.323 3.54233 5.25 3.75 5.25C3.95767 5.25 4.13483 5.323 4.2815 5.469C4.42817 5.615 4.501 5.792 4.5 6C4.5 6.05833 4.49367 6.1125 4.481 6.1625C4.46833 6.2125 4.45383 6.25833 4.4375 6.3L6 7L7.5625 4.8625C7.47083 4.79583 7.39583 4.70833 7.3375 4.6C7.27917 4.49167 7.25 4.375 7.25 4.25C7.25 4.04167 7.323 3.8645 7.469 3.7185C7.615 3.5725 7.792 3.49967 8 3.5C8.208 3.50033 8.38517 3.57333 8.5315 3.719C8.67783 3.86467 8.75067 4.04167 8.75 4.25C8.75 4.375 8.72083 4.49167 8.6625 4.6C8.60417 4.70833 8.52917 4.79583 8.4375 4.8625L10 7L11.5625 6.3C11.5458 6.25833 11.5312 6.2125 11.5185 6.1625C11.5058 6.1125 11.4997 6.05833 11.5 6C11.5 5.79167 11.573 5.6145 11.719 5.4685C11.865 5.3225 12.042 5.24967 12.25 5.25C12.458 5.25033 12.6352 5.32333 12.7815 5.469C12.9278 5.61467 13.0007 5.79167 13 6C12.9993 6.20833 12.9265 6.3855 12.7815 6.5315C12.6365 6.6775 12.4593 6.75033 12.25 6.75C12.2333 6.75 12.2147 6.748 12.194 6.744C12.1733 6.74 12.1545 6.73783 12.1375 6.7375L11.5 10.75H4.5Z" fill="url(#paint0_linear_2336_2008)"/>
<defs>
<linearGradient id="paint0_linear_2336_2008" x1="8" y1="3.5" x2="8" y2="12.5" gradientUnits="userSpaceOnUse">
<stop offset="0.1" stop-color="#B99225"/>
<stop offset="0.5" stop-color="#EACB6A"/>
<stop offset="1" stop-color="#B99225"/>
</linearGradient>
</defs>
</svg>
