<svg width="200" height="200" viewBox="0 0 200 200" fill="none" xmlns="http://www.w3.org/2000/svg">
<rect width="200" height="200" fill="white"/>
<path d="M119.145 44.1799L104.603 68.4385L100.417 66.7156L96.2336 68.4592L81.597 44.2593C85.0173 43.0916 88.5455 42.2516 92.1376 41.7479L100.388 55.1214L108.58 41.7058C112.116 42.1902 115.648 43.0104 119.145 44.1799Z" fill="#FF7300"/>
<path d="M80.7274 74.9125L76.5604 76.6493L74.833 80.8464L47.3683 74.0866C48.9941 70.7916 50.9096 67.7101 53.0429 64.8532L68.3279 68.4743L64.6418 53.2175C67.5444 51.0142 70.6247 49.0999 73.855 47.4765L80.7274 74.9125Z" fill="#1CC932"/>
<path d="M68.4485 104.743L44.2479 119.377C43.1077 115.955 42.2557 112.422 41.7565 108.819L55.1094 100.588L41.7152 92.4056C42.1995 88.87 43.0079 85.3329 44.1773 81.8365L68.4387 96.3794L66.7113 100.576L68.4485 104.743Z" fill="#08BBE8"/>
<path d="M74.0908 153.611C70.7954 151.985 67.7137 150.07 64.8563 147.936L68.4814 132.641L53.2073 136.333C51.0037 133.43 49.0938 130.339 47.47 127.108L74.9191 120.243L76.6631 124.426L80.8491 126.149L74.0908 153.611Z" fill="#F2CC08"/>
<path d="M119.379 156.714C115.963 157.87 112.435 158.71 108.838 159.225L100.594 145.868L92.4123 159.261C88.8763 158.776 85.3389 157.967 81.8422 156.798L96.3843 132.539L100.559 134.257L104.742 132.514L119.379 156.714Z" fill="#FF7300"/>
<path d="M147.922 136.117L132.648 132.5L136.339 147.746C133.437 149.949 130.351 151.875 127.121 153.498L120.249 126.062L124.416 124.325L126.143 120.128L153.608 126.888C151.982 130.183 150.067 133.265 147.922 136.117Z" fill="#1CC932"/>
<path d="M132.536 104.596L134.264 100.399L132.527 96.2325L156.727 81.5987C157.872 85.0094 158.719 88.5537 159.223 92.1455L145.866 100.388L159.271 108.575C158.782 112.122 157.962 115.654 156.798 119.139L132.536 104.596Z" fill="#08BBE8"/>
<path d="M153.504 73.8681L126.055 80.7332L124.311 76.5501L120.136 74.832L126.895 47.3699C130.19 48.9958 133.272 50.9114 136.125 53.0563L132.509 68.3283L147.767 64.6436C149.97 67.5462 151.88 70.638 153.504 73.8681Z" fill="#F2CC08"/>
</svg>
