<svg width="10" height="10" viewBox="0 0 10 10" fill="none" xmlns="http://www.w3.org/2000/svg">
<g clip-path="url(#clip0_11254_4601)">
<path opacity="0.5" d="M7.25 1.54883C7.25 0.927509 7.75368 0.423828 8.375 0.423828C8.99632 0.423828 9.5 0.927509 9.5 1.54883V8.29883C9.5 8.92015 8.99632 9.42383 8.375 9.42383C7.75368 9.42383 7.25 8.92015 7.25 8.29883V1.54883Z" fill="#E5E5E8"/>
<path d="M0.5 6.04883C0.5 5.42751 1.00368 4.92383 1.625 4.92383C2.24632 4.92383 2.75 5.42751 2.75 6.04883V8.29883C2.75 8.92014 2.24632 9.42383 1.625 9.42383C1.00368 9.42383 0.5 8.92014 0.5 8.29883V6.04883Z" fill="#E5E5E8"/>
<path fill-rule="evenodd" clip-rule="evenodd" d="M2.075 8.29883V6.04883C2.075 5.80029 1.87353 5.59883 1.625 5.59883C1.37647 5.59883 1.175 5.80029 1.175 6.04883V8.29883C1.175 8.54736 1.37647 8.74883 1.625 8.74883C1.87353 8.74883 2.075 8.54736 2.075 8.29883ZM1.625 4.92383C1.00368 4.92383 0.5 5.42751 0.5 6.04883V8.29883C0.5 8.92014 1.00368 9.42383 1.625 9.42383C2.24632 9.42383 2.75 8.92014 2.75 8.29883V6.04883C2.75 5.42751 2.24632 4.92383 1.625 4.92383Z" fill="#E5E5E8"/>
<path d="M3.875 3.79883C3.875 3.17751 4.37868 2.67383 5 2.67383C5.62132 2.67383 6.125 3.17751 6.125 3.79883V8.29883C6.125 8.92015 5.62132 9.42383 5 9.42383C4.37868 9.42383 3.875 8.92015 3.875 8.29883V3.79883Z" fill="#E5E5E8"/>
</g>
<defs>
<clipPath id="clip0_11254_4601">
<rect width="9" height="9.45" fill="white" transform="translate(0.5 0.275391)"/>
</clipPath>
</defs>
</svg>
