<svg width="17" height="16" viewBox="0 0 17 16" fill="none" xmlns="http://www.w3.org/2000/svg">
<path d="M3.83301 13.334V12.0007H13.1663V13.334H3.83301ZM3.83301 11.0007L2.98301 5.65065C2.96079 5.65065 2.93568 5.65354 2.90768 5.65932C2.87968 5.6651 2.85479 5.66776 2.83301 5.66732C2.55523 5.66732 2.31923 5.56999 2.12501 5.37532C1.93079 5.18065 1.83345 4.94465 1.83301 4.66732C1.83256 4.38999 1.9299 4.15399 2.12501 3.95932C2.32012 3.76465 2.55612 3.66732 2.83301 3.66732C3.1099 3.66732 3.34612 3.76465 3.54168 3.95932C3.73723 4.15399 3.83434 4.38999 3.83301 4.66732C3.83301 4.7451 3.82456 4.81732 3.80768 4.88399C3.79079 4.95065 3.77145 5.01176 3.74968 5.06732L5.83301 6.00065L7.91634 3.15065C7.79412 3.06176 7.69412 2.9451 7.61634 2.80065C7.53856 2.65621 7.49968 2.50065 7.49968 2.33399C7.49968 2.05621 7.59701 1.81999 7.79168 1.62532C7.98634 1.43065 8.22234 1.33354 8.49968 1.33399C8.77701 1.33443 9.01323 1.43176 9.20834 1.62599C9.40345 1.82021 9.50056 2.05621 9.49968 2.33399C9.49968 2.50065 9.46079 2.65621 9.38301 2.80065C9.30523 2.9451 9.20523 3.06176 9.08301 3.15065L11.1663 6.00065L13.2497 5.06732C13.2275 5.01176 13.2079 4.95065 13.191 4.88399C13.1741 4.81732 13.1659 4.7451 13.1663 4.66732C13.1663 4.38954 13.2637 4.15332 13.4583 3.95865C13.653 3.76399 13.889 3.66687 14.1663 3.66732C14.4437 3.66776 14.6799 3.7651 14.875 3.95932C15.0701 4.15354 15.1672 4.38954 15.1663 4.66732C15.1655 4.9451 15.0683 5.18132 14.875 5.37599C14.6817 5.57065 14.4455 5.66776 14.1663 5.66732C14.1441 5.66732 14.1192 5.66465 14.0917 5.65932C14.0641 5.65399 14.039 5.6511 14.0163 5.65065L13.1663 11.0007H3.83301Z" fill="url(#paint0_linear_11139_6270)"/>
<defs>
<linearGradient id="paint0_linear_11139_6270" x1="8.49968" y1="1.33398" x2="8.49968" y2="13.334" gradientUnits="userSpaceOnUse">
<stop offset="0.1" stop-color="#B99225"/>
<stop offset="0.5" stop-color="#EACB6A"/>
<stop offset="1" stop-color="#B99225"/>
</linearGradient>
</defs>
</svg>
