<svg width="80" height="80" viewBox="0 0 80 80" fill="none" xmlns="http://www.w3.org/2000/svg">
<rect width="80" height="80" rx="10" fill="#E9E9E9"/>
<path d="M44.1663 29.5837C44.1663 30.6887 43.7274 31.7485 42.946 32.5299C42.1646 33.3113 41.1047 33.7503 39.9997 33.7503C38.8946 33.7503 37.8348 33.3113 37.0534 32.5299C36.272 31.7485 35.833 30.6887 35.833 29.5837C35.833 28.4786 36.272 27.4188 37.0534 26.6374C37.8348 25.856 38.8946 25.417 39.9997 25.417C41.1047 25.417 42.1646 25.856 42.946 26.6374C43.7274 27.4188 44.1663 28.4786 44.1663 29.5837Z" stroke="#FF7300" stroke-width="2.5"/>
<path d="M52.5 35.834C52.5 35.834 45.1312 38.959 40 38.959C34.8687 38.959 27.5 35.834 27.5 35.834M40 40.0007V43.0257M40 43.0257C39.9994 44.2245 40.3437 45.3983 40.9917 46.4069L46.25 54.584M40 43.0257C40.0006 44.2245 39.6563 45.3983 39.0083 46.4069L33.75 54.584" stroke="#FF7300" stroke-width="2.5" stroke-linecap="round"/>
<path d="M29.5832 21.9545C32.7487 20.1227 36.3425 19.161 39.9998 19.167C51.5061 19.167 60.8332 28.4941 60.8332 40.0004C60.8332 51.5066 51.5061 60.8337 39.9998 60.8337C28.4936 60.8337 19.1665 51.5066 19.1665 40.0004C19.1665 36.2066 20.1811 32.6462 21.954 29.5837" stroke="#FF7300" stroke-width="2.5" stroke-linecap="round"/>
</svg>
