<svg width="16" height="16" viewBox="0 0 16 16" fill="none" xmlns="http://www.w3.org/2000/svg">
<g clip-path="url(#clip0_11124_7114)">
<g clip-path="url(#clip1_11124_7114)">
<path opacity="0.8" d="M3.34967 10.4296C2.25492 9.33489 1.70754 8.78751 1.50386 8.07733C1.30018 7.36715 1.47425 6.61287 1.82238 5.1043L2.02314 4.23434C2.31603 2.96517 2.46247 2.33059 2.89702 1.89604C3.33156 1.46149 3.96615 1.31505 5.23531 1.02216L6.10527 0.821404C7.61384 0.473273 8.36813 0.299207 9.07831 0.502885C9.78849 0.706562 10.3359 1.25394 11.4306 2.34869L12.7266 3.64468C14.6313 5.54938 15.5837 6.50173 15.5837 7.68516C15.5837 8.86859 14.6313 9.82094 12.7266 11.7256C10.8219 13.6303 9.86956 14.5827 8.68614 14.5827C7.50271 14.5827 6.55036 13.6303 4.64566 11.7256L3.34967 10.4296Z" stroke="#0C3373" stroke-width="1.2"/>
<path opacity="0.8" d="M8.17595 12.1035L13.1194 7.15988" stroke="#0C3373" stroke-width="1.2" stroke-linecap="round"/>
</g>
</g>
<defs>
<clipPath id="clip0_11124_7114">
<rect width="16" height="16" fill="white"/>
</clipPath>
<clipPath id="clip1_11124_7114">
<rect width="17" height="17" fill="white" transform="translate(0 -1)"/>
</clipPath>
</defs>
</svg>
