<svg width="45" height="46" viewBox="0 0 45 46" fill="none" xmlns="http://www.w3.org/2000/svg">
<g clip-path="url(#clip0_11139_6273)">
<path d="M15.8036 35.7797L9.09015 39.4417C8.69619 39.6565 8.34213 39.9205 8.0127 40.2083C11.9268 43.5086 16.9796 45.4997 22.5001 45.4997C27.98 45.4997 33.0004 43.5383 36.9035 40.2831C36.5435 39.9791 36.153 39.7057 35.72 39.49L28.531 35.896C27.6021 35.4316 27.0154 34.4823 27.0154 33.4439V30.6233C27.2175 30.3933 27.4485 30.0978 27.6955 29.7488C28.6753 28.3649 29.4166 26.8425 29.9302 25.2454C30.8523 24.961 31.5316 24.1094 31.5316 23.0973V20.0866C31.5316 19.4243 31.2369 18.8325 30.7793 18.4182V14.0659C30.7793 14.0659 31.6734 7.29297 22.501 7.29297C13.3286 7.29297 14.2227 14.0659 14.2227 14.0659V18.4182C13.7642 18.8325 13.4704 19.4243 13.4704 20.0866V23.0973C13.4704 23.8903 13.8873 24.5883 14.5114 24.9916C15.2636 28.2664 17.2335 30.6233 17.2335 30.6233V33.3743C17.2326 34.3762 16.6841 35.2991 15.8036 35.7797Z" fill="#E7ECED"/>
<path d="M22.8846 0.503351C10.4603 0.291086 0.215617 10.1911 0.00335273 22.6153C-0.117213 29.66 3.0226 35.9914 8.02184 40.2018C8.34873 39.9166 8.69939 39.655 9.08911 39.4428L15.8026 35.7808C16.6831 35.3002 17.2316 34.3773 17.2316 33.3737V30.6228C17.2316 30.6228 15.2609 28.2658 14.5095 24.991C13.8863 24.5877 13.4685 23.8906 13.4685 23.0967V20.086C13.4685 19.4237 13.7632 18.8319 14.2208 18.4176V14.0653C14.2208 14.0653 13.3267 7.29241 22.4991 7.29241C31.6715 7.29241 30.7774 14.0653 30.7774 14.0653V18.4176C31.2359 18.8319 31.5297 19.4237 31.5297 20.086V23.0967C31.5297 24.1088 30.8504 24.9604 29.9284 25.2449C29.4147 26.8419 28.6734 28.3643 27.6936 29.7483C27.4466 30.0972 27.2156 30.3927 27.0135 30.6228V33.4434C27.0135 34.4817 27.6002 35.4318 28.5291 35.8954L35.7181 39.4895C36.1494 39.7051 36.5391 39.9777 36.8983 40.2808C41.7464 36.2376 44.8785 30.1923 44.9949 23.3846C45.2088 10.9603 35.3097 0.715615 22.8846 0.503351Z" fill="#081F45"/>
</g>
<defs>
<clipPath id="clip0_11139_6273">
<rect width="45" height="45" fill="white" transform="translate(0 0.5)"/>
</clipPath>
</defs>
</svg>
