<svg width="30" height="30" viewBox="0 0 30 30" fill="none" xmlns="http://www.w3.org/2000/svg">
<path d="M2.5 15C2.5 9.10744 2.5 6.16117 4.33058 4.33058C6.16117 2.5 9.10744 2.5 15 2.5C20.8926 2.5 23.8388 2.5 25.6694 4.33058C27.5 6.16117 27.5 9.10744 27.5 15C27.5 20.8926 27.5 23.8388 25.6694 25.6694C23.8388 27.5 20.8926 27.5 15 27.5C9.10744 27.5 6.16117 27.5 4.33058 25.6694C2.5 23.8388 2.5 20.8926 2.5 15Z" stroke="#0C3373" stroke-width="2"/>
<path d="M26.875 10H3.125" stroke="#0C3373" stroke-width="2" stroke-linecap="round"/>
<path d="M13.125 3.125L8.75 10" stroke="#0C3373" stroke-width="2" stroke-linecap="round"/>
<path d="M21.25 3.125L16.875 10" stroke="#0C3373" stroke-width="2" stroke-linecap="round"/>
<path d="M18.75 18.125C18.75 17.3333 17.9225 16.7994 16.2675 15.7315C14.5898 14.6491 13.751 14.1078 13.1255 14.5052C12.5 14.9026 12.5 15.9767 12.5 18.125C12.5 20.2733 12.5 21.3474 13.1255 21.7448C13.751 22.1422 14.5898 21.6009 16.2675 20.5185C17.9225 19.4506 18.75 18.9167 18.75 18.125Z" stroke="#0C3373" stroke-width="2" stroke-linecap="round"/>
</svg>
