<svg width="30" height="30" viewBox="0 0 30 30" fill="none" xmlns="http://www.w3.org/2000/svg">
<path fill-rule="evenodd" clip-rule="evenodd" d="M6.34836 6.33623C11.0925 1.59876 18.8046 1.64913 23.5777 6.42231C28.353 11.1976 28.4013 18.9142 23.6577 23.6578C18.914 28.4015 11.1974 28.3531 6.42217 23.5779C3.59236 20.7481 2.4238 16.8875 2.92559 13.2266C2.9959 12.7137 3.46874 12.3548 3.98172 12.4251C4.49469 12.4954 4.85353 12.9683 4.78322 13.4812C4.35825 16.5816 5.34728 19.8513 7.748 22.2521C11.8036 26.3077 18.333 26.3309 22.3319 22.332C26.3308 18.3331 26.3075 11.8037 22.2519 7.74814C18.1984 3.69461 11.6736 3.66933 7.67419 7.66206L8.60881 7.66675C9.12657 7.66935 9.54419 8.09119 9.54159 8.60895C9.53899 9.12671 9.11715 9.54433 8.59939 9.54173L5.41745 9.52574C4.90337 9.52315 4.48726 9.10705 4.48467 8.59296L4.46868 5.41102C4.46608 4.89326 4.8837 4.47142 5.40146 4.46882C5.91922 4.46622 6.34106 4.88384 6.34366 5.4016L6.34836 6.33623ZM14.9999 9.06249C15.5176 9.06249 15.9374 9.48222 15.9374 9.99999V14.6117L18.7878 17.4621C19.1539 17.8282 19.1539 18.4218 18.7878 18.7879C18.4216 19.154 17.8281 19.154 17.4619 18.7879L14.0624 15.3883V9.99999C14.0624 9.48222 14.4821 9.06249 14.9999 9.06249Z" fill="#0C3373"/>
</svg>
